<?xml version="1.0" standalone="no"?>
<!DOCTYPE svg PUBLIC "-//W3C//DTD SVG 20010904//EN"
 "http://www.w3.org/TR/2001/REC-SVG-20010904/DTD/svg10.dtd">
<svg version="1.0" xmlns="http://www.w3.org/2000/svg"
 width="491.000000pt" height="508.000000pt" viewBox="0 0 491.000000 508.000000"
 preserveAspectRatio="xMidYMid meet">

<g transform="translate(0.000000,508.000000) scale(0.100000,-0.100000)"
fill="#000000" stroke="none">
<path d="M382 4832 c-53 -21 -110 -75 -133 -127 -24 -53 -24 -147 0 -200 23
-49 2042 -2070 2099 -2100 50 -26 162 -27 212 -1 49 25 2066 2041 2093 2091
30 56 30 164 0 221 -62 118 -214 168 -327 108 -20 -10 -451 -430 -957 -933
l-921 -914 -916 916 c-712 712 -927 921 -962 936 -55 25 -130 26 -188 3z"/>
<path d="M408 2906 c-147 -41 -220 -202 -154 -341 34 -71 2028 -2064 2096
-2094 65 -30 152 -28 216 4 38 19 278 253 1066 1042 991 992 1017 1019 1032
1072 20 67 20 95 2 155 -40 132 -183 202 -321 157 -33 -11 -203 -176 -960
-932 -506 -506 -925 -919 -930 -919 -5 0 -422 411 -925 914 -649 649 -926 919
-952 930 -56 22 -118 27 -170 12z"/>
</g>
</svg>
