<svg id="Layer_1" data-name="Layer 1" xmlns="http://www.w3.org/2000/svg" width="157.8" height="157.8" viewBox="0 0 157.8 157.8">
  <path d="M127.8,157.8H30a30,30,0,0,1-30-30H0V30A30,30,0,0,1,30,0h97.8a30,30,0,0,1,30,30v97.8A30,30,0,0,1,127.8,157.8Z" style="fill: #0260e8"/>
  <g style="isolation: isolate">
    <path d="M87.8,48c8,0,14.2,1.6,18.4,4.8a25.6,25.6,0,0,1,8.6,13,62.6,62.6,0,0,1,2.3,17.9v40.1a9.2,9.2,0,0,1-2.8,6.9,10.9,10.9,0,0,1-14.4,0,9.3,9.3,0,0,1-2.9-6.9V83.7a30.3,30.3,0,0,0-1.3-9.3,12.7,12.7,0,0,0-4.9-6.7c-2.3-1.6-5.7-2.5-10.1-2.5a23.4,23.4,0,0,0-10.9,2.5,16.6,16.6,0,0,0-6.7,6.7,18.3,18.3,0,0,0-2.3,9.3v40.1a9.3,9.3,0,0,1-2.9,6.9,10.1,10.1,0,0,1-7.2,2.7,10.1,10.1,0,0,1-7.2-2.7,9.2,9.2,0,0,1-2.8-6.9V27a9,9,0,0,1,2.8-6.8,9.7,9.7,0,0,1,7.2-2.8,9.7,9.7,0,0,1,7.2,2.8A9.1,9.1,0,0,1,60.8,27V65.9l-2.5-.5a31.8,31.8,0,0,1,4.2-5.7A33.5,33.5,0,0,1,69,53.9a38.4,38.4,0,0,1,8.6-4.3A30.3,30.3,0,0,1,87.8,48Z" style="fill: #fff"/>
  </g>
  <ellipse cx="135.7" cy="133.3" rx="10.1" ry="9.5"/>
</svg>
