<?xml version="1.0" encoding="UTF-8"?>
<svg xmlns="http://www.w3.org/2000/svg" viewBox="0 0 400 300" width="406" height="306" class="illustration styles_illustrationTablet__1DWOa"> <g id="_251_money_transfer_flatline" data-name="#251_money_transfer_flatline"> <path d="M66.68,262.57l80.43-17c2.52-.53,4.54-3.75,4.54-7.19V61.58c0-3.44-2-6.65-4.54-7.19l-80.43-17c-3.54-.75-6.44,2-6.44,6.13V256.44C60.24,260.58,63.14,263.32,66.68,262.57Z" fill="#231f20"/> <path d="M65.53,263.14A5.29,5.29,0,0,1,62.16,262a7,7,0,0,1-2.36-5.51V43.56a7,7,0,0,1,2.36-5.51,5.39,5.39,0,0,1,4.61-1L147.2,54c2.74.58,4.89,3.93,4.89,7.62V238.4c0,3.69-2.15,7-4.89,7.62L66.77,263A5.89,5.89,0,0,1,65.53,263.14Zm1.06-1,.09.43-.09-.43,80.43-17c2.31-.49,4.19-3.52,4.19-6.76V61.58c0-3.24-1.88-6.27-4.19-6.76l-80.43-17a4.56,4.56,0,0,0-3.88.88,6.12,6.12,0,0,0-2,4.82V256.44a6.1,6.1,0,0,0,2,4.82A4.56,4.56,0,0,0,66.59,262.14Z" fill="#231f20"/> <path d="M73.61,260.74l78.5-16.52c2.47-.52,4.45-3.69,4.45-7.1V62.24c0-3.4-2-6.58-4.45-7.1L73.61,38.52c-3.45-.73-6.28,2-6.28,6.07V254.67C67.33,258.75,70.16,261.47,73.61,260.74Z" fill="#fff"/> <path d="M72.51,261.36a5.22,5.22,0,0,1-3.32-1.17,7,7,0,0,1-2.36-5.52V44.59a7,7,0,0,1,2.36-5.52,5.31,5.31,0,0,1,4.52-1l78.51,16.62c2.71.57,4.84,3.91,4.84,7.59V237.12c0,3.69-2.13,7-4.84,7.59L73.71,261.23h0A5.58,5.58,0,0,1,72.51,261.36Zm1.1-.62h0ZM72.51,38.9a4.25,4.25,0,0,0-2.69,1,6,6,0,0,0-2,4.74V254.67a6,6,0,0,0,2,4.74,4.29,4.29,0,0,0,3.68.84L152,243.73c2.23-.47,4.05-3.43,4.05-6.61V62.24c0-3.18-1.82-6.14-4.05-6.61L73.5,39A4.84,4.84,0,0,0,72.51,38.9Z" fill="#231f20"/> <path d="M79.33,246.54a4.24,4.24,0,0,1-2.72-1,5.75,5.75,0,0,1-1.89-4.48V58.92a5.75,5.75,0,0,1,1.89-4.48,4.26,4.26,0,0,1,3.55-.91L147.53,66c2.25.42,4,3.1,4,6.11V227.91c0,3-1.77,5.69-4,6.11L80.16,246.46A4,4,0,0,1,79.33,246.54Zm0-192.09a3.19,3.19,0,0,0-2.07.76,4.76,4.76,0,0,0-1.53,3.71V241.08a4.76,4.76,0,0,0,1.53,3.71,3.21,3.21,0,0,0,2.73.69L147.35,233c1.76-.33,3.2-2.63,3.2-5.13V72.07c0-2.5-1.44-4.8-3.2-5.13h0L80,54.52A3.09,3.09,0,0,0,79.32,54.45Z" fill="#d1d3d4"/> <path d="M128.61,57.65h-.1l-14.33-2.82a.51.51,0,0,1,.2-1l14.32,2.83a.5.5,0,0,1,.4.58A.51.51,0,0,1,128.61,57.65Z" fill="#d1d3d4"/> <path d="M112.08,54.39H112l-2.62-.51a.51.51,0,0,1-.4-.59.49.49,0,0,1,.59-.39l2.62.51a.5.5,0,0,1,.39.59A.49.49,0,0,1,112.08,54.39Z" fill="#d1d3d4"/> <path d="M63.49,87.27a.5.5,0,0,1-.5-.5V64.89a.5.5,0,0,1,.5-.5.51.51,0,0,1,.5.5V86.77A.51.51,0,0,1,63.49,87.27Z" fill="#d1d3d4"/> <path d="M333.32,262.57l-80.43-17c-2.52-.53-4.54-3.75-4.54-7.19V61.58c0-3.44,2-6.65,4.54-7.19l80.43-17c3.54-.75,6.44,2,6.44,6.13V256.44C339.76,260.58,336.86,263.32,333.32,262.57Z" fill="#231f20"/> <path d="M334.47,263.14a5.89,5.89,0,0,1-1.24-.14L252.8,246c-2.74-.58-4.89-3.93-4.89-7.62V61.58c0-3.69,2.15-7,4.89-7.62l80.43-17a5.39,5.39,0,0,1,4.61,1,7,7,0,0,1,2.36,5.51V256.44a7,7,0,0,1-2.36,5.51A5.29,5.29,0,0,1,334.47,263.14Zm-1.06-1a4.56,4.56,0,0,0,3.88-.88,6.1,6.1,0,0,0,2-4.82V43.56a6.12,6.12,0,0,0-2-4.82,4.56,4.56,0,0,0-3.88-.88L253,54.82c-2.31.49-4.19,3.52-4.19,6.76V238.4c0,3.24,1.88,6.27,4.19,6.76Z" fill="#231f20"/> <path d="M326.39,260.74l-78.5-16.52c-2.47-.52-4.45-3.69-4.45-7.1V62.24c0-3.4,2-6.58,4.45-7.1l78.5-16.62c3.45-.73,6.28,2,6.28,6.07V254.67C332.67,258.75,329.84,261.47,326.39,260.74Z" fill="#fff"/> <path d="M327.49,261.36a5.58,5.58,0,0,1-1.2-.13h0l-78.51-16.52c-2.71-.57-4.84-3.9-4.84-7.59V62.24c0-3.68,2.13-7,4.84-7.59L326.29,38a5.3,5.3,0,0,1,4.52,1,7,7,0,0,1,2.36,5.52V254.67a7,7,0,0,1-2.36,5.52A5.22,5.22,0,0,1,327.49,261.36Zm-1-1.11a4.29,4.29,0,0,0,3.68-.84,6,6,0,0,0,2-4.74V44.59a6,6,0,0,0-2-4.74A4.29,4.29,0,0,0,326.5,39L248,55.63c-2.23.47-4.05,3.43-4.05,6.61V237.12c0,3.18,1.82,6.14,4.05,6.61Z" fill="#231f20"/> <path d="M320.67,246.54a4,4,0,0,1-.83-.08L252.47,234c-2.25-.42-4-3.1-4-6.11V72.07c0-3,1.77-5.69,4-6.11l67.37-12.43a4.26,4.26,0,0,1,3.55.91,5.75,5.75,0,0,1,1.89,4.48V241.08a5.75,5.75,0,0,1-1.89,4.48A4.24,4.24,0,0,1,320.67,246.54Zm-68-179.6c-1.76.33-3.2,2.63-3.2,5.13V227.91c0,2.5,1.44,4.8,3.2,5.13L320,245.48a3.22,3.22,0,0,0,2.73-.69,4.76,4.76,0,0,0,1.53-3.71V58.92a4.76,4.76,0,0,0-1.53-3.71,3.22,3.22,0,0,0-2.73-.69L252.65,66.94Zm-.09-.49h0Z" fill="#d1d3d4"/> <path d="M271.39,57.65a.51.51,0,0,1-.49-.41.5.5,0,0,1,.4-.58l14.32-2.83a.51.51,0,0,1,.2,1l-14.33,2.82Z" fill="#d1d3d4"/> <path d="M287.92,54.39a.49.49,0,0,1-.49-.4.5.5,0,0,1,.39-.59l2.62-.51a.49.49,0,0,1,.59.39.51.51,0,0,1-.4.59l-2.62.51Z" fill="#d1d3d4"/> <path d="M336.51,87.27a.51.51,0,0,1-.5-.5V64.89a.51.51,0,0,1,.5-.5.5.5,0,0,1,.5.5V86.77A.5.5,0,0,1,336.51,87.27Z" fill="#d1d3d4"/> <path d="M267.19,210.83s-5.81-.18-6.88-12.14,1.12-26.27,3.66-26.46,10.09,16.48,9.2,22.72S275,211.19,267.19,210.83Z" fill="#231f20"/> <path d="M267.57,211.28h-.4c-.32,0-6.21-.4-7.3-12.54-.93-10.39.56-23.42,3-26.31a1.59,1.59,0,0,1,1.06-.63,2.28,2.28,0,0,1,1.65.94c3.29,3.53,8.79,16.81,8,22.28a37.85,37.85,0,0,0-.21,5.21c0,3.81,0,7.75-2.07,9.75A5.22,5.22,0,0,1,267.57,211.28ZM264,172.67h0a.84.84,0,0,0-.46.32c-2.07,2.45-3.77,14.77-2.8,25.66,1,11.36,6.4,11.74,6.45,11.74h0a4.52,4.52,0,0,0,3.5-1.06c1.81-1.74,1.8-5.49,1.8-9.11a38.26,38.26,0,0,1,.22-5.33c.74-5.16-4.67-18.22-7.79-21.55C264.37,172.72,264.09,172.67,264,172.67Z" fill="#231f20"/> <path d="M120.74,134s7.35,3.21,12.06-8.66,7-31.61,2.08-33S108.49,116.65,120.74,134Z" fill="#231f20"/> <path d="M123,134.82a6.62,6.62,0,0,1-2.46-.43.52.52,0,0,1-.18-.15C113.1,123.93,117.5,110.3,124,101c4.11-5.85,8.71-9.66,11-9a3.15,3.15,0,0,1,1.93,1.8c2.74,5.5.21,21.86-3.71,31.74-1.82,4.58-4.24,7.52-7.19,8.74A7.78,7.78,0,0,1,123,134.82Zm-2-1.2a6.77,6.77,0,0,0,4.68-.23c2.72-1.13,5-3.9,6.69-8.24,4.22-10.62,6.11-26.27,3.74-31a2.3,2.3,0,0,0-1.37-1.35c-1.57-.42-5.84,2.76-10,8.69C118.42,110.52,114.12,123.7,121,133.62Z" fill="#231f20"/> <path d="M279.13,173.26c-1.2,0-41.4-2.46-51.44,2s-30.12,7.63-38.55,7.63S161.43,177.23,159,180s2.31,6.83,3.56,10.44S195,211.77,219.17,215s33.12-10.6,41.86-9.24c15,2.34,8.83-.4,8.83-.4Z" fill="#fff"/> <path d="M226.26,216a53.83,53.83,0,0,1-7.15-.49c-24.32-3.23-55.71-21.11-57-24.83a18.24,18.24,0,0,0-2-3.6c-1.64-2.55-3.34-5.18-1.49-7.33,1.51-1.76,7.37-.87,16.86.82,5.05.89,10.27,1.82,13.64,1.82,8.5,0,28.35-3.19,38.35-7.59,6-2.64,23.37-3.35,50.26-2.07l1.38.07h.67l-9.34,32.31c.89.46,1.27.94,1.13,1.42s-.39,1.34-10.64-.25c-3.16-.5-6.43,1.13-10.56,3.2C244.73,212.27,237.32,216,226.26,216Zm-64.09-36.22c-1.4,0-2.39.18-2.77.62-1.36,1.59.06,3.8,1.57,6.13a19.3,19.3,0,0,1,2.09,3.83c1,3,31.75,20.92,56.18,24.16,14.85,2,24-2.6,30.7-5.94,4.3-2.14,7.69-3.83,11.16-3.29,6.22,1,8.44,1,9.23.91a4.67,4.67,0,0,0-.67-.36l-.4-.18,9.21-31.89-.77,0c-26.35-1.26-44-.55-49.81,2-10.11,4.45-30.17,7.67-38.75,7.67-3.46,0-8.73-.93-13.82-1.84C170.55,180.66,165.33,179.74,162.17,179.74Z" fill="#231f20"/> <path d="M246.63,183.55s-57.44,20.79-100.27,10.19l-3.19-21,18.24-21.27s37.49,7.9,69.29-9.06l19.38,20.33Z" fill="#0260e8"/> <path d="M173.48,197.22a113.94,113.94,0,0,1-27.24-3l-.32-.08-3.28-21.53,18.58-21.67.29.06c.37.08,37.69,7.67,69-9l.33-.18,19.82,20.79-3.54,21.32-.28.1C246.34,184.19,209.8,197.22,173.48,197.22Zm-26.67-3.89c40.64,9.89,95-8.63,99.38-10.15l3.36-20.25-19-19.88c-30,15.84-65.43,9.67-69,9l-17.9,20.89Z" fill="#231f20"/> <path d="M183.09,178A181.39,181.39,0,0,1,143,173.25l.25-1c.33.09,32.8,8.33,61.32,2.84,30.65-5.91,45.11-12.74,45.26-12.81l.43.9c-.14.07-14.7,6.95-45.5,12.89A116,116,0,0,1,183.09,178Z" fill="#231f20"/> <path d="M184.4,173.64A210.64,210.64,0,0,1,150.56,171a.51.51,0,0,1-.39-.33.49.49,0,0,1,.11-.5l14.27-15.58a.52.52,0,0,1,.47-.15c32.18,6.47,68.09-2.45,68.45-2.54a.48.48,0,0,1,.42.08l12,8.93a.49.49,0,0,1,.2.45.47.47,0,0,1-.28.4C226.32,171.23,203.05,173.64,184.4,173.64Zm-32.76-3.44c7.23,1.18,56.49,8.29,93-8.95L233.48,153c-3.14.76-37.41,8.69-68.38,2.54Z" fill="#fff"/> <path d="M241.21,185.13s-12.76,5.35-22,3.21c-2.32-.54-21.14-1.82-21.2,2.41-.12,9.37,28.52,14.72,38.69,10.44" fill="#fff"/> <path d="M226.79,203.21c-8.74,0-19.39-2.38-25.11-6.23-2.82-1.9-4.23-4-4.21-6.24a2.08,2.08,0,0,1,.9-1.63c3.64-2.86,19-1.7,20.92-1.26,9,2.08,21.61-3.13,21.73-3.19a.5.5,0,1,1,.39.93c-.53.22-13,5.38-22.35,3.24-2.24-.52-16.93-1.4-20.08,1.07a1.14,1.14,0,0,0-.51.85c0,1.89,1.25,3.7,3.77,5.4,7.95,5.35,26.5,7.83,34.23,4.58a.49.49,0,0,1,.65.27.5.5,0,0,1-.26.65A27.17,27.17,0,0,1,226.79,203.21Z" fill="#231f20"/> <path d="M152.21,132.1s32.23,15.08,35.06,8.8c-12.46-4.85-23.67-22.56-23.67-22.56" fill="#fff"/> <path d="M183.53,142.92c-9.25,0-30.53-9.9-31.53-10.37l.43-.9c.26.12,26.68,12.42,33.27,10a2.27,2.27,0,0,0,.81-.49c-12.22-5.14-22.88-21.8-23.33-22.52l.84-.54c.11.18,11.27,17.63,23.43,22.37l.49.19-.22.48a2.77,2.77,0,0,1-1.67,1.45A7.38,7.38,0,0,1,183.53,142.92Z" fill="#231f20"/> <path d="M184.18,120.13l-25.84,19.81S190.19,173.44,256,151L244.37,129s-22.83,9-41.27,4.08C188.15,129.05,184.18,120.13,184.18,120.13Z" fill="#0260e8"/> <path d="M212.91,159.21a93.59,93.59,0,0,1-30.58-4.85c-16.12-5.55-24.27-14-24.35-14.07l-.38-.41,26.78-20.53.26.57c0,.09,4.08,8.76,18.59,12.64,18.08,4.83,40.73-4,41-4.06l.41-.17,12.15,23-.56.19C239.52,157.18,225.07,159.21,212.91,159.21ZM159.1,140c1.8,1.71,9.69,8.66,23.62,13.45,14.61,5,39,8.6,72.59-2.69l-11.18-21.16c-3.21,1.18-24.14,8.48-41.16,3.94-13-3.49-17.81-10.58-19-12.64Z" fill="#231f20"/> <path d="M215.92,154.47a94.81,94.81,0,0,1-27-3.85c-14.47-4.29-23-10.72-23-10.78a.51.51,0,0,1-.19-.4.53.53,0,0,1,.19-.4l19.15-14.7a.5.5,0,0,1,.65,0c24,23.69,55.72,9.69,56,9.54a.5.5,0,0,1,.65.23l7.36,14a.51.51,0,0,1,0,.42.48.48,0,0,1-.31.28A105.61,105.61,0,0,1,215.92,154.47Zm-48.86-15c4.46,3.1,36.27,23.52,81.55,8.67L241.74,135c-3.94,1.61-33.54,12.63-56.41-9.62Z" fill="#fff"/> <path d="M156.35,134c-4,1.7-8.45,2.84-16,1.54-12.06-2.07-24.51-11.88-24.51-11.88s3.34-21.88,13-31.3c0,0,8.36,5.87,15.9.59,5.34-3.74,28.17-17.45,33.88-21.77,2.76-2.09,5.81-5.44,9.09-6.65,2.17-.8,4.72,0,4.15,2.71a21.45,21.45,0,0,1-5.49,10,63.31,63.31,0,0,1-8.75,7.5c8.1-3.46,15-8.76,22.18-13.78a2.88,2.88,0,0,1,1.61-.68c3.07.06,1,6.92.39,8.32-3,6.49-9.35,10.36-15.48,13.45,6.57-.82,12-4.94,17.74-7.93,2.61-1.37,5.51-2.24,5.05,2-.32,2.9-3.28,5-5.49,6.53-7.22,4.94-15.35,9-22.31,14.22.74,1.92,5.79,2.47,7.68,3.6a10,10,0,0,1,4.91,6.68c1.95,9.86-1.7,18.26-6.41,16.94s-3-15.64-11.07-18.25c-4.59-1.49-7.77,1.45-10.39,5.82" fill="#fff"/> <path d="M146.38,136.55a35.7,35.7,0,0,1-6.12-.57c-12-2.07-24.62-11.88-24.74-12a.52.52,0,0,1-.19-.46c.14-.9,3.48-22.16,13.1-31.59a.5.5,0,0,1,.64,0c.08.06,8.16,5.6,15.32.59,2.26-1.59,7.74-5,13.54-8.63,8-5,17-10.65,20.33-13.13.81-.62,1.65-1.34,2.54-2.11,2.11-1.83,4.3-3.73,6.68-4.61a4.14,4.14,0,0,1,4,.4,2.81,2.81,0,0,1,.78,2.89,21.76,21.76,0,0,1-5.61,10.22,47.48,47.48,0,0,1-5.13,4.7,130.77,130.77,0,0,0,14.83-9.56l3.08-2.17a3.54,3.54,0,0,1,1.9-.77,1.91,1.91,0,0,1,1.65.91c1.26,2-.29,7-.81,8.12-2.5,5.46-7.27,9.06-12.46,12A49.17,49.17,0,0,0,199.59,86c1.36-.78,2.77-1.6,4.18-2.33s3.59-1.71,4.87-.83c.79.54,1.09,1.61.91,3.27-.36,3.24-3.7,5.53-5.7,6.9-3.17,2.16-6.56,4.2-9.84,6.16-4.08,2.45-8.3,5-12.11,7.78.68.81,2.6,1.4,4.18,1.87a15.11,15.11,0,0,1,3.1,1.17,10.36,10.36,0,0,1,5.15,7c1.35,6.8.14,13.55-3,16.4a4.15,4.15,0,0,1-4.08,1.12c-2.32-.65-3.19-3.79-4.19-7.42-1.21-4.43-2.6-9.45-6.9-10.85-3.74-1.21-6.76.52-9.81,5.6a.51.51,0,0,1-.69.18.51.51,0,0,1-.17-.69c2.07-3.45,5.46-7.83,11-6,4.81,1.56,6.27,6.86,7.56,11.54.92,3.33,1.71,6.22,3.48,6.71a3.17,3.17,0,0,0,3.14-.88c2.4-2.22,4.08-8.25,2.65-15.48a9.45,9.45,0,0,0-4.68-6.35,15.2,15.2,0,0,0-2.88-1.06c-2.19-.66-4.45-1.35-5-2.78a.52.52,0,0,1,.17-.59c3.94-2.93,8.31-5.56,12.54-8.09,3.27-2,6.65-4,9.79-6.14,2.4-1.64,5-3.61,5.27-6.18.1-.85.09-2-.48-2.34-.42-.29-1.43-.37-3.84.89-1.39.73-2.79,1.54-4.14,2.32-4.28,2.47-8.7,5-13.77,5.66a.49.49,0,0,1-.54-.35.5.5,0,0,1,.26-.59c6.21-3.13,12.36-6.9,15.25-13.21.53-1.15,1.83-5.64.87-7.17a.91.91,0,0,0-.82-.44,2.45,2.45,0,0,0-1.31.59L197,73.48c-6,4.26-12.22,8.67-19.2,11.66a.5.5,0,0,1-.5-.86,63.88,63.88,0,0,0,8.68-7.44,20.67,20.67,0,0,0,5.37-9.75,1.87,1.87,0,0,0-.45-1.92,3.18,3.18,0,0,0-3-.22c-2.2.82-4.32,2.65-6.36,4.42-.91.78-1.76,1.52-2.6,2.16-3.31,2.51-12.39,8.18-20.4,13.18-5.79,3.61-11.25,7-13.5,8.6-6.84,4.79-14.4.69-16.11-.36-8.58,8.75-12,27.86-12.48,30.45,1.76,1.33,13.15,9.73,24.06,11.6,7.62,1.31,12.07.05,15.73-1.51a.49.49,0,0,1,.65.27.5.5,0,0,1-.26.65A24.46,24.46,0,0,1,146.38,136.55Z" fill="#231f20"/> <path d="M134.88,92.36s-8.92,4.22-14.14,21a34.07,34.07,0,0,0,0,20.64l-19.47-5.93s-8.36-14-5.62-29.59C99,79.2,117,80.86,117,80.86,119.06,81.38,134.88,92.36,134.88,92.36Z" fill="#231f20"/> <path d="M120.74,134.43l-.13,0-19.47-5.94a.44.44,0,0,1-.25-.2c-.08-.14-8.41-14.27-5.68-29.89,3.41-19.43,21.66-18,21.85-18C119.19,81,133.5,90.87,135.13,92a.42.42,0,0,1,.18.4.43.43,0,0,1-.25.36c-.08,0-8.8,4.37-13.9,20.72a34,34,0,0,0,0,20.35.42.42,0,0,1-.09.45A.41.41,0,0,1,120.74,134.43Zm-19.18-6.75,18.5,5.64a35.51,35.51,0,0,1,.26-20.11c4.47-14.34,11.55-19.57,13.72-20.89-4.75-3.29-15.59-10.64-17.13-11-.65-.06-17.56-1.38-20.83,17.25C93.55,113,100.7,126.16,101.56,127.68Z" fill="#231f20"/> <path d="M292.6,164.5c-.81-.26-28.36,7.69-28.63,7.73s12.06,12.9,3.22,38.6l27,7.23s7.68-10.19,8.55-26.52S292.6,164.5,292.6,164.5Z" fill="#231f20"/> <path d="M294.21,218.5l-.11,0-27-7.23a.42.42,0,0,1-.27-.21.43.43,0,0,1,0-.35c2.39-6.94,6.88-24.52-2.92-37.85-.29-.38-.39-.52-.29-.77a.43.43,0,0,1,.35-.27l3.25-.92c22.95-6.52,25.16-6.94,25.58-6.79a.34.34,0,0,1,.16.1c.12.11,11.17,11,10.3,27.37s-8.56,26.66-8.63,26.76A.44.44,0,0,1,294.21,218.5Zm-26.46-8,26.28,7a52.5,52.5,0,0,0,8.29-26c.8-15-8.7-25.32-9.91-26.56-1.92.22-18.62,5-25,6.78l-2.72.77C274.37,185.86,270.21,203.2,267.75,210.52Z" fill="#231f20"/> <path d="M176.48,182.22a144.92,144.92,0,0,1-32.6-3.46.5.5,0,1,1,.25-1c.35.09,34.73,8.81,71.48-1.91a.5.5,0,0,1,.62.34.51.51,0,0,1-.34.62A141.56,141.56,0,0,1,176.48,182.22Z" fill="#231f20"/> <path d="M187.27,186.88a.5.5,0,0,1-.5-.5.5.5,0,0,1,.5-.5c31.24,0,60.34-16.56,60.63-16.72a.5.5,0,1,1,.5.86c-.29.17-29.62,16.83-61.13,16.86Z" fill="#231f20"/> <path d="M175.08,193.58a100.63,100.63,0,0,1-29.69-4.68.5.5,0,0,1-.31-.63.51.51,0,0,1,.64-.31c.2.07,19.88,6.84,40.14,3.86a.5.5,0,1,1,.15,1A76,76,0,0,1,175.08,193.58Z" fill="#231f20"/> </g> </svg>