<svg id="Layer_1" data-name="Layer 1" xmlns="http://www.w3.org/2000/svg" xmlns:xlink="http://www.w3.org/1999/xlink" viewBox="0 0 357.97 258.87"><defs><style>.cls-1{fill:none;}.cls-2{clip-path:url(#clip-path);}.cls-3{fill:#231f20;}.cls-4{fill:#e6e7e8;}.cls-5{fill:#fff;}.cls-6{fill:#0260e8;}</style><clipPath id="clip-path" transform="translate(-24.01 -23.59)"><rect class="cls-1" x="30.06" y="30.86" width="344.1" height="246.04" rx="50.58"/></clipPath></defs><g class="cls-2"><g id="_503_spotlight_flatline" data-name=" 503 spotlight flatline"><rect class="cls-3" x="0.51" y="0.47" width="356.97" height="257.89"/><path class="cls-3" d="M381.48,282.45h-357A.5.5,0,0,1,24,282V24.09a.5.5,0,0,1,.51-.5h357a.5.5,0,0,1,.51.5V281.9a.51.51,0,0,1-.47.55ZM25,281.44H381V24.56H25Z" transform="translate(-24.01 -23.59)"/><polygon class="cls-4" points="257.74 218.33 238.8 27.79 216.84 23.02 70.52 212.4 257.74 218.33"/><path class="cls-5" d="M281.75,241.91c0,13.49-41.48,24.46-93,24.66h-1.48c-22.15,0-42.51-2-58.61-5.32-21.84-4.52-35.85-11.51-35.85-19.35,0-13.62,42.3-24.66,94.46-24.66S281.75,228.29,281.75,241.91Z" transform="translate(-24.01 -23.59)"/><path class="cls-3" d="M187.31,217.25c52.16,0,94.39,11,94.39,24.66s-41.43,24.46-92.91,24.66h-1.48c-22.15,0-42.51-2-58.61-5.32-21.84-4.52-35.85-11.51-35.85-19.35,0-13.62,42.3-24.66,94.46-24.66m0-1c-53.53,0-95.47,11.28-95.47,25.68,0,11.52,25.64,18.06,36.66,20.3,16.89,3.5,37.23,5.34,58.81,5.34h1.48c25-.1,48.44-2.72,66-7.38,10.44-2.76,27.94-8.81,27.94-18.27,0-14.4-41.93-25.68-95.41-25.68Z" transform="translate(-24.01 -23.59)"/><path class="cls-4" d="M219.24,251.27l-30.45,15.3h-1.48c-22.15,0-42.51-2-58.61-5.32L195,247.74l3.93,1-28.2,9s8.67,1.71,11.25,1.93S208.3,252,208.3,252Z" transform="translate(-24.01 -23.59)"/><path class="cls-3" d="M195.62,241.86s-1.37,6.47,0,6.83,10.7-2.85,9.58-4.84-7.46-2-7.46-2Z" transform="translate(-24.01 -23.59)"/><path class="cls-3" d="M195.89,249.23a1.27,1.27,0,0,1-.39,0c-1.59-.43-.91-4.84-.37-7.43a.51.51,0,0,1,.5-.4h2.12c.68,0,6.66.06,7.9,2.24a1.38,1.38,0,0,1-.23,1.6C204,247,197.92,249.23,195.89,249.23Zm.16-6.86c-.56,2.81-.69,5.54-.27,5.85.93.25,7.5-1.93,8.83-3.65.25-.3.18-.43.16-.46-.71-1.27-4.68-1.74-7-1.74Z" transform="translate(-24.01 -23.59)"/><path class="cls-3" d="M192,183.08s1.37,27.59,1.11,29.33.05,24.73-.19,30.45l8.78,3.27s3.18-49.21,3.48-56.17.66-9.24.66-9.24Z" transform="translate(-24.01 -23.59)"/><path class="cls-3" d="M201.72,246.63h-.17l-8.78-3.3a.51.51,0,0,1-.34-.49c.13-2.87.12-10.3.11-16.85,0-6.84,0-12.75.1-13.65.19-1.39-.75-21.57-1.13-29.24a.53.53,0,0,1,.43-.52l13.83-2.36a.53.53,0,0,1,.45.13.57.57,0,0,1,.14.45s-.36,2.35-.65,9.14-3.45,55.68-3.48,56.18a.51.51,0,0,1-.22.39A.53.53,0,0,1,201.72,246.63Zm-8.26-4.12,7.8,2.9c.39-6,3.15-49,3.44-55.47.21-4.91.44-7.48.57-8.6l-12.72,2.16c.18,3.71,1.33,27.31,1.09,29-.12.83-.11,7.28-.09,13.51C193.56,232.6,193.57,239.42,193.46,242.51Z" transform="translate(-24.01 -23.59)"/><path class="cls-3" d="M197.08,181.34s6.52,38.27,7,42,2.59,21.87,2.59,21.87l11,1.24-1.78-65.12Z" transform="translate(-24.01 -23.59)"/><path class="cls-3" d="M217.67,247h-.06l-11-1.25a.5.5,0,0,1-.44-.45c0-.18-2.12-18.18-2.6-21.86s-6.93-41.61-7-42a.47.47,0,0,1,.11-.42.49.49,0,0,1,.38-.18h18.81a.52.52,0,0,1,.51.5l1.82,65.12a.57.57,0,0,1-.16.39A.54.54,0,0,1,217.67,247Zm-10.53-2.21,10,1.13-1.75-64H197.68c.83,4.87,6.46,38,6.9,41.43s2.25,18.79,2.56,21.48Z" transform="translate(-24.01 -23.59)"/><path class="cls-3" d="M222.79,198.86a.51.51,0,0,1-.51-.51,9.83,9.83,0,0,0-.18-1.95c-.16-.62-1.3-1-3.38-1.3-1.18-.13-4.29-.5-5,.18a5.93,5.93,0,0,0-.72,2.56.5.5,0,0,1-.54.46h0a.53.53,0,0,1-.47-.55,6.23,6.23,0,0,1,1-3.19c.75-.76,2.31-.87,5.79-.47,2.69.31,4,.93,4.26,2a11.45,11.45,0,0,1,.21,2.19.52.52,0,0,1-.47.55Z" transform="translate(-24.01 -23.59)"/><polygon class="cls-5" points="181.18 193.56 181.85 173.84 206.13 175.17 205.04 193.56 181.18 193.56"/><path class="cls-3" d="M229.06,217.66H205.2a.48.48,0,0,1-.36-.16.43.43,0,0,1-.14-.37l.65-19.71a.58.58,0,0,1,.17-.37.51.51,0,0,1,.37-.13l24.27,1.33a.53.53,0,0,1,.36.17.49.49,0,0,1,.12.37l-1.08,18.39A.5.5,0,0,1,229.06,217.66Zm-23.35-1h22.87l1-17.41L206.35,198Z" transform="translate(-24.01 -23.59)"/><polygon class="cls-5" points="181.18 193.56 177.63 192.32 178.86 174.91 181.85 173.84 181.18 193.56"/><path class="cls-3" d="M205.2,217.66H205l-3.56-1.24a.51.51,0,0,1-.34-.52l1.24-17.4a.52.52,0,0,1,.34-.44l3-1.08a.53.53,0,0,1,.47.07.55.55,0,0,1,.21.43l-.66,19.72a.51.51,0,0,1-.22.39A.59.59,0,0,1,205.2,217.66Zm-3-2.11,2.55.89.6-18.27-1.95.71Z" transform="translate(-24.01 -23.59)"/><path class="cls-5" d="M214,188a24.6,24.6,0,0,1,.3,3.64c-.16.38-1,2.27-.75,3.25s4.06,2.37,5.37.73.44-9.41.44-9.41Z" transform="translate(-24.01 -23.59)"/><path class="cls-3" d="M217,196.88a6.15,6.15,0,0,1-1.21-.14c-1.19-.27-2.56-.93-2.75-1.75a6.78,6.78,0,0,1,.73-3.45,23.79,23.79,0,0,0-.29-3.48.51.51,0,0,1,.34-.56l5.36-1.79a.56.56,0,0,1,.44.06.51.51,0,0,1,.23.37c.08.82.8,8-.56,9.78A2.75,2.75,0,0,1,217,196.88Zm-2.46-8.55c.4,3,.25,3.37.2,3.49v.11a5.67,5.67,0,0,0-.68,2.83,3.84,3.84,0,0,0,2.29,1c.47.07,1.65.18,2.18-.5.78-1,.68-5.45.41-8.42Z" transform="translate(-24.01 -23.59)"/><path class="cls-5" d="M198.94,135c-.82,0-1.64-.12-2.6-.17s-2-.33-2-1.22.84-1.41.62-2.14a2.14,2.14,0,0,0-.32-.52,8.16,8.16,0,0,1,1-11.28c-.24.09-.52-.16-.55-.41a1.07,1.07,0,0,1,.26-.73,5.12,5.12,0,0,1,2.41-1.57,15.57,15.57,0,0,1,9.14-.32c2.31.6,5.13,2.33,4.92,5.08a2.2,2.2,0,0,1-1.82,2c-.41,3-1.89,5.07-3.77,7.27a12.11,12.11,0,0,1-4.71,3.45A6.45,6.45,0,0,1,198.94,135Z" transform="translate(-24.01 -23.59)"/><path class="cls-3" d="M198.94,135.48h-.08c-.49,0-1,0-1.5-.09l-1.12-.08c-1.54-.08-2.51-.71-2.56-1.7a2.36,2.36,0,0,1,.4-1.28c.19-.34.3-.56.25-.74a1.06,1.06,0,0,0-.21-.31,8.7,8.7,0,0,1,.52-11.52,1,1,0,0,1-.2-.47,1.48,1.48,0,0,1,.36-1.08,5.59,5.59,0,0,1,2.64-1.76,16.21,16.21,0,0,1,9.48-.32c2.8.71,5.53,2.73,5.31,5.63a2.78,2.78,0,0,1-1.88,2.47,14.73,14.73,0,0,1-3.84,7.18A12.4,12.4,0,0,1,201.6,135,6.93,6.93,0,0,1,198.94,135.48Zm-3.44-16.35a.52.52,0,0,1,.44.24.51.51,0,0,1-.11.64,7.69,7.69,0,0,0-1,10.59,2.32,2.32,0,0,1,.42.69,1.94,1.94,0,0,1-.33,1.53,1.62,1.62,0,0,0-.27.73c0,.49.87.71,1.6.74l1.15.08c.49,0,1,.09,1.42.1h0a6.32,6.32,0,0,0,2.36-.42,11.37,11.37,0,0,0,4.51-3.3c2-2.4,3.29-4.32,3.65-7a.53.53,0,0,1,.47-.44,1.68,1.68,0,0,0,1.35-1.6c.2-2.65-2.76-4.12-4.54-4.58a15,15,0,0,0-8.88.29,4.62,4.62,0,0,0-2.17,1.4.68.68,0,0,0-.16.33Z" transform="translate(-24.01 -23.59)"/><path class="cls-5" d="M210.87,128.08s2.23,3.42,1.76,4.12-2,.24-2,.24" transform="translate(-24.01 -23.59)"/><path class="cls-3" d="M211.64,133.1a4.21,4.21,0,0,1-1.17-.19.49.49,0,0,1-.34-.61v0a.5.5,0,0,1,.62-.33c.5.15,1.29.21,1.45,0a11.7,11.7,0,0,0-1.77-3.55.51.51,0,0,1,.14-.7.49.49,0,0,1,.69.12v0c1.11,1.68,2.32,3.87,1.77,4.68A1.65,1.65,0,0,1,211.64,133.1Z" transform="translate(-24.01 -23.59)"/><path class="cls-5" d="M210.4,123.56c1.43,1.18,1,3.65,1,5.25,0,2.27-.1,4.53-.23,6.78-.08,1.43-3.8,1.45-4.45,1l.55,5.66-7.78-3,.34-4.68a4.75,4.75,0,0,0,4-2.9c1.46-2.91,1.28-9.25,1.28-9.25S209,122.44,210.4,123.56Z" transform="translate(-24.01 -23.59)"/><path class="cls-3" d="M207.25,142.85a.54.54,0,0,1-.18,0l-7.78-3a.49.49,0,0,1-.32-.5l.34-4.68a.5.5,0,0,1,.5-.47,4.26,4.26,0,0,0,3.54-2.61c1.39-2.77,1.22-9,1.22-9a.51.51,0,0,1,.15-.37.48.48,0,0,1,.38-.15c.51,0,4.15,0,5.62,1.25s1.28,3.17,1.2,4.79v.86c0,2.26-.11,4.54-.23,6.8a1.53,1.53,0,0,1-1,1.27,6.44,6.44,0,0,1-3.42.41l.49,4.93a.5.5,0,0,1-.19.45A.53.53,0,0,1,207.25,142.85ZM200,139l6.66,2.59-.47-4.84a.51.51,0,0,1,.46-.55.53.53,0,0,1,.32.08,5.52,5.52,0,0,0,3.29-.21c.23-.13.36-.26.37-.42.13-2.24.21-4.51.24-6.75V128c.07-1.4.16-3.14-.84-4s-3.19-1-4.47-1c0,1.61-.08,6.44-1.35,9a5.38,5.38,0,0,1-4,3.12Z" transform="translate(-24.01 -23.59)"/><path class="cls-5" d="M206.52,129.51a3.07,3.07,0,0,0-.63-1.55,4.44,4.44,0,0,0-.81-1,1.48,1.48,0,0,0-1.22-.37,1.35,1.35,0,0,0-.89.69,2.58,2.58,0,0,0-.28,1.13,4.83,4.83,0,0,0,2.22,4.31l-.13-.14" transform="translate(-24.01 -23.59)"/><path class="cls-3" d="M204.83,133.18a.66.66,0,0,1-.2-.06,5.36,5.36,0,0,1-2.45-4.77,3,3,0,0,1,.35-1.34,1.85,1.85,0,0,1,1.23-1,2,2,0,0,1,1.65.49,5.07,5.07,0,0,1,.91,1.14,3.53,3.53,0,0,1,.71,1.82.51.51,0,0,1-.51.51h0a.52.52,0,0,1-.51-.5,2.69,2.69,0,0,0-.54-1.29,4.46,4.46,0,0,0-.71-.91,1,1,0,0,0-.8-.26.8.8,0,0,0-.54.44,1.92,1.92,0,0,0-.23.91,4.35,4.35,0,0,0,1.73,3.67.4.4,0,0,1,.23.12.62.62,0,0,1,.08.74A.55.55,0,0,1,204.83,133.18Z" transform="translate(-24.01 -23.59)"/><path class="cls-5" d="M197.92,140.66l.67-2.49,10,.62,1.08,3.7A19.69,19.69,0,0,1,197.92,140.66Z" transform="translate(-24.01 -23.59)"/><path class="cls-3" d="M206.8,143.24a20.85,20.85,0,0,1-9.14-2.13.49.49,0,0,1-.27-.58l.68-2.49a.51.51,0,0,1,.51-.38l10,.62a.49.49,0,0,1,.45.37l1.07,3.7a.5.5,0,0,1-.38.64A14.89,14.89,0,0,1,206.8,143.24Zm-8.31-2.86A19.85,19.85,0,0,0,209,142.09l-.81-2.82-9.2-.57Z" transform="translate(-24.01 -23.59)"/><path class="cls-6" d="M212.55,142.73s-12.76-6.09-19.84-2.29-2.45,26.54-1.93,30.33-.26,15.48-.26,15.48l28.42-1.09S215.77,146.23,212.55,142.73Z" transform="translate(-24.01 -23.59)"/><path class="cls-6" d="M212.86,144.71s-4.73-.6-5.49,6.4,5.32,38.43,5.32,38.43l9.58-1.19s-3.57-27.26-5.07-34.71S214.39,144.52,212.86,144.71Z" transform="translate(-24.01 -23.59)"/><path class="cls-3" d="M212.3,188a.51.51,0,0,1-.5-.43c0-.28-4.47-28.84-5-34.9-.31-3.47.37-6.25,1.9-7.81a3.81,3.81,0,0,1,3-1.23.51.51,0,1,1-.06,1,2.84,2.84,0,0,0-2.19.92c-.77.78-2,2.73-1.62,7,.53,6,4.93,34.51,5,34.83a.52.52,0,0,1-.42.58Z" transform="translate(-24.01 -23.59)"/><path class="cls-3" d="M207.41,244.47s-.11,7.11.89,7.46,11.6,1,10.94-.67-6.09-1.57-6.55-2.47-.33-5.64-.33-5.64Z" transform="translate(-24.01 -23.59)"/><path class="cls-3" d="M214.46,252.86a41.71,41.71,0,0,1-6.32-.45c-.9-.3-1.31-3-1.24-7.95a.54.54,0,0,1,.37-.48l5-1.33a.54.54,0,0,1,.44.1.51.51,0,0,1,.2.41,20.2,20.2,0,0,0,.27,5.38,8.11,8.11,0,0,0,2.16.57c1.93.38,3.92.75,4.41,2a.83.83,0,0,1-.19.92C218.92,252.66,216.74,252.86,214.46,252.86Zm-6.55-8c0,2.93.22,6.19.62,6.62,1.13.36,9.14.65,10.15-.12-.4-.65-2.32-1-3.61-1.26-1.67-.32-2.56-.51-2.86-1.08-.45-.82-.45-3.77-.42-5.22Z" transform="translate(-24.01 -23.59)"/><circle class="cls-5" cx="250.86" cy="51.37" r="11.95" transform="translate(119.21 260.13) rotate(-76.72)"/><path class="cls-3" d="M250.87,63.83a12.47,12.47,0,1,1,12.45-12.47h0A12.48,12.48,0,0,1,250.87,63.83Zm0-23.9a11.45,11.45,0,1,0,11.44,11.46v0A11.46,11.46,0,0,0,250.87,39.93Z" transform="translate(-24.01 -23.59)"/></g></g></svg>